<?xml version="1.0" encoding="UTF-8"?>
<svg id="Layer_2" data-name="Layer 2" xmlns="http://www.w3.org/2000/svg" viewBox="0 0 272.8 430.69">
  <g id="Layer_2-2" data-name="Layer 2">
    <path d="M72.38,229.13s-12.18,50.89-11.69,69.97c.32,12.36-1.01,22.06-.52,36.87.58,17.59,13.57,32.84,32.12,37.95l26.77,7.37c4.26,1.17,8.69,1.77,13.15,1.77h4.52c5.46,0,10.88-.9,15.98-2.65l26-8.9c16.36-5.6,27.68-19.24,29.15-35.06,1.51-16.18,2.28-36.8-1-52.62-6.33-30.53-10.72-54.7-10.72-54.7" style="fill: #f1f3e5; stroke: #60615b; stroke-miterlimit: 10; stroke-width: 2.5px;"/>
    <path d="M83.12,227.18s-18.87-2.39-39.26,24.13c-8.52,11.08-17.53,24.82-22.6,34.62C.71,325.71,3.67,327.93,4.77,331.82c3.76,13.32,12.05,4.02,12.05,4.02l5.05-4.49s2.12,4.87,5.07,6.92c2.95,2.04,4.24.78,7.2-2.86s17.66-36.18,17.66-36.18l15.28-34.01" style="fill: #f1f3e5; stroke: #60615b; stroke-miterlimit: 10; stroke-width: 2.5px;"/>
    <path d="M192.4,227.18s18.87-2.39,39.26,24.13c8.52,11.08,17.53,24.82,22.6,34.62,20.55,39.78,17.59,42,16.5,45.89-3.76,13.32-12.05,4.02-12.05,4.02l-5.05-4.49s-2.12,4.87-5.07,6.92c-2.95,2.04-4.24.78-7.2-2.86s-17.66-36.18-17.66-36.18l-23.75-30.44" style="fill: #f1f3e5; stroke: #60615b; stroke-miterlimit: 10; stroke-width: 2.5px;"/>
    <path d="M60.45,337.51c0,1.77,3.24,44.22,8.42,63.22,6.27,22.99,10.02,31.48,21.37,27.94,0,0,7.8,1.77,13.83-.71,6.03-2.48,14.54-43.27,14.54-43.27" style="fill: #f1f3e5; stroke: #60615b; stroke-miterlimit: 10; stroke-width: 2.5px;"/>
    <path d="M207.55,337.51c0,1.77-3.24,44.22-8.42,63.22-6.27,22.99-10.02,31.48-21.37,27.94,0,0-7.8,1.77-13.83-.71-7.23-2.98-13.34-37.5-14.54-43.27" style="fill: #f1f3e5; stroke: #60615b; stroke-miterlimit: 10; stroke-width: 2.5px;"/>
    <path d="M111.36,232.06c-4.67,0-15.69-2.13-20.3-2.99-32.38-6.02-58.99-14.49-75.27-43.8-9.8-17.65-14.55-28.24-14.55-48.9v-17.58C4.07,57.83,46.41,22.21,96.47,6.83c16.61-5.1,25.83-5.49,34.75-5.58l11.22.32c8.92.1,17.28,1.53,33.89,6.63,50.06,15.37,92.4,51,95.22,111.96v17.58c0,20.66-4.75,31.25-14.55,48.9-16.28,29.31-42.89,37.78-75.27,43.8-4.61.86-15.3,1.63-19.98,1.63" style="fill: #f1f3e5; stroke: #60615b; stroke-miterlimit: 10; stroke-width: 2.5px;"/>
    <circle cx="59.53" cy="125.19" r="12.35" style="fill: #60615b;"/>
    <circle cx="196.78" cy="125.19" r="12.35" style="fill: #60615b;"/>
    <path d="M119.57,143.66c-.54-1.78.26-3.31,2.11-3.56,4.49-.61,13.06-1.34,17.78,0,2.4.68,2.34,4.09,1.37,6.32-.7,1.61-2.62,3.18-4.18,3.98-2.83,1.45-4.56,1.19-6.24,1.2-1.91.01-5.16-.12-6.66-1.16-2.4-1.67-3.58-4.85-4.17-6.78Z" style="fill: #60615b;"/>
  </g>
</svg>